<?xml version="1.0" encoding="UTF-8" standalone="no"?>
<!-- Created with Inkscape (http://www.inkscape.org/) -->

<svg
   width="210mm"
   height="297mm"
   viewBox="0 0 210 297"
   version="1.1"
   id="svg5"
   inkscape:version="1.1.1 (3bf5ae0d25, 2021-09-20)"
   sodipodi:docname="Home.svg"
   xmlns:inkscape="http://www.inkscape.org/namespaces/inkscape"
   xmlns:sodipodi="http://sodipodi.sourceforge.net/DTD/sodipodi-0.dtd"
   xmlns="http://www.w3.org/2000/svg"
   xmlns:svg="http://www.w3.org/2000/svg">
  <sodipodi:namedview
     id="namedview7"
     pagecolor="#ffffff"
     bordercolor="#666666"
     borderopacity="1.0"
     inkscape:pageshadow="2"
     inkscape:pageopacity="0.0"
     inkscape:pagecheckerboard="0"
     inkscape:document-units="mm"
     showgrid="false"
     inkscape:object-paths="false"
     inkscape:zoom="0.46330226"
     inkscape:cx="216.92102"
     inkscape:cy="468.37674"
     inkscape:window-width="1916"
     inkscape:window-height="1049"
     inkscape:window-x="0"
     inkscape:window-y="0"
     inkscape:window-maximized="1"
     inkscape:current-layer="layer1" />
  <defs
     id="defs2" />
  <g
     inkscape:label="Layer 1"
     inkscape:groupmode="layer"
     id="layer1">
    <path
       style="fill:#000000;fill-opacity:1;fill-rule:nonzero;stroke:none;stroke-width:0.264583"
       id="path311"
       d="m 29.614212,88.170463 c -0.52129,6.6235 -1.000718,13.255727 -1.357845,19.892067 -0.626406,13.9241 -0.755708,27.86444 -0.921311,41.79984 -0.20992,8.44513 -0.0665,16.88897 0.07427,25.33321 0.06638,4.12108 0.08968,8.24265 0.09759,12.3642 -0.0704,2.05452 0.02088,4.09405 0.412626,6.11245 0.06105,0.28857 0.122103,0.57715 0.183155,0.86572 0,0 3.453749,-1.85215 3.453749,-1.85215 v 0 c -0.06125,-0.28512 -0.122502,-0.57024 -0.183753,-0.85536 -0.368644,-1.99135 -0.451548,-4.00595 -0.41946,-6.02951 -0.04626,-4.0976 -0.150899,-8.19409 -0.252701,-12.29062 -0.196752,-8.3961 -0.413512,-16.79243 -0.329239,-25.1919 0.05928,-13.94133 0.192503,-27.89003 0.986636,-41.81236 0.331637,-4.82434 0.750308,-9.623511 1.207628,-14.436438 0.104272,-1.097407 0.271533,-3.333565 0.430604,-4.586528 0.04409,-0.347329 0.114932,-0.69074 0.172397,-1.036111 0,0 -3.554346,1.72349 -3.554346,1.72349 z" />
    <path
       style="fill:#000000;fill-opacity:1;fill-rule:nonzero;stroke:none;stroke-width:0.264583"
       id="path313"
       d="m 89.0751,22.291212 c -0.774716,0.945835 -1.425183,1.728457 -2.186654,2.720261 -2.123697,2.766088 -2.142943,2.950921 -4.511482,5.920361 -2.871473,3.599974 -3.49146,4.216524 -6.59929,7.751654 -5.594945,6.391666 -11.946274,12.029072 -18.127308,17.829754 -3.252867,3.087397 -6.693313,5.969675 -9.913273,9.09293 -1.856343,1.800591 -2.332556,2.35548 -4.047712,4.19598 -2.462843,2.719181 -4.559292,5.722271 -6.491584,8.830871 -1.114224,1.8239 -2.277639,3.616052 -3.442973,5.407583 -1.448834,2.068354 -2.804303,4.190989 -4.042537,6.391449 -0.175157,0.304004 -0.350316,0.60801 -0.525473,0.912014 0,0 3.565279,-1.589273 3.565279,-1.589273 v 0 c 0.171873,-0.303313 0.343744,-0.606629 0.515615,-0.909942 1.241509,-2.194591 2.611334,-4.304215 4.056433,-6.37046 1.167516,-1.789541 2.328238,-3.583519 3.432175,-5.413285 1.883886,-3.076553 3.96409,-6.026954 6.391216,-8.705776 1.719911,-1.847569 2.13809,-2.341554 4.004869,-4.15119 3.220667,-3.122084 6.67019,-5.993847 9.9124,-9.092393 6.148194,-5.761863 12.379602,-11.449021 17.947684,-17.792351 1.176579,-1.335214 2.372892,-2.653294 3.529735,-4.005643 3.501821,-4.093639 6.658332,-8.459912 10.15098,-12.559016 0,0 -3.6181,1.536472 -3.6181,1.536472 z" />
    <path
       style="fill:#000000;fill-opacity:1;fill-rule:nonzero;stroke:none;stroke-width:0.264583"
       id="path315"
       d="m 91.582847,23.904245 c 4.121338,2.782188 7.817528,6.115157 11.563113,9.36904 5.62343,4.918377 11.33633,9.73264 16.93312,14.681615 2.26851,2.000025 4.47979,4.062744 6.59571,6.223485 2.43164,2.465114 4.63804,5.13603 6.85125,7.795183 2.57465,3.077744 5.04988,6.234229 7.35714,9.517422 1.72611,2.447332 3.34241,4.966996 4.82196,7.570356 1.96932,3.396771 4.04031,6.731288 5.98595,10.142244 1.00889,1.816012 1.98569,3.659616 3.24734,5.316386 0.0776,0.120648 0.19829,0.222716 0.23295,0.361942 0.0178,0.07159 -0.0619,0.133925 -0.0929,0.200888 0.90131,-0.602131 2.03138,-0.956323 2.70391,-1.80639 0.32806,-0.414668 -1.02328,0.281694 -1.54816,0.345538 -3.61527,0.439759 -6.04306,0.319024 -9.88969,0.355097 C 130.95535,93.848842 115.70668,91.64512 100.43265,90.031328 89.555602,88.950984 78.703463,87.637227 67.880097,86.11287 62.156982,85.290146 56.477487,84.221853 50.803018,83.120758 47.200936,82.439811 43.595062,81.751587 39.95257,81.322144 c -1.414648,-0.136572 -2.837723,-0.142457 -4.257683,-0.141213 -0.759579,-0.0191 -1.469859,0.201914 -2.173491,0.458438 0,0 -3.100938,2.437958 -3.100938,2.437958 v 0 c 0.66562,-0.289348 1.342477,-0.553664 2.079413,-0.572108 1.421175,-0.01601 2.844644,-0.02689 4.262797,0.08363 3.694671,0.345514 7.354655,0.981784 11.002211,1.65196 5.686158,1.0911 11.356708,2.291887 17.108792,2.996454 10.922696,1.35608 21.856956,2.62246 32.805647,3.75103 15.269352,1.575919 30.518462,3.583249 45.880362,4.010948 1.99598,0.03006 3.99176,0.102061 5.98792,0.09018 1.20364,-0.0072 2.40708,-0.06583 3.60798,-0.147315 0.52155,-0.03539 1.08399,0.02365 1.55505,-0.202996 1.38557,-0.666663 2.68256,-1.518738 3.92006,-2.431336 0.22583,-0.166542 -0.26849,-0.753951 -0.30529,-0.807397 -1.29649,-1.608117 -2.27879,-3.434109 -3.30772,-5.217745 -1.98525,-3.38518 -4.0683,-6.713318 -5.96512,-10.149705 -1.47287,-2.623714 -3.10929,-5.146542 -4.87276,-7.585077 -2.32089,-3.285887 -4.81427,-6.440221 -7.38061,-9.537452 -2.19786,-2.683443 -4.39356,-5.37443 -6.84215,-7.836656 -2.10964,-2.192735 -4.29904,-4.303639 -6.66825,-6.218058 -5.72057,-4.829505 -11.50036,-9.592296 -17.07915,-14.58646 -3.68517,-3.295486 -7.297183,-6.679986 -11.298689,-9.597309 0,0 -3.328104,2.132332 -3.328104,2.132332 z" />
    <path
       style="fill:#000000;fill-opacity:1;fill-rule:nonzero;stroke:none;stroke-width:0.264583"
       id="path317"
       d="m 156.95994,98.753622 c 0.1289,7.644568 0.34223,15.287258 0.47982,22.931808 0.1243,8.80426 0.21981,17.61082 0.1015,26.4156 -0.0333,5.26779 -0.36463,10.52408 -0.63388,15.78277 -0.18679,3.93888 -0.39915,7.87573 -0.50988,11.81789 0.0546,3.75285 -0.5956,7.4526 -1.16498,11.14622 -0.27041,1.80794 -0.39839,3.64821 -1.16671,5.32823 -0.12726,0.16588 -0.24232,0.34187 -0.38178,0.49763 -0.26696,0.2982 -0.62943,0.59407 -0.96024,0.81636 -0.17018,0.11435 -0.70509,0.4189 -0.5292,0.31353 3.08448,-1.84786 3.85717,-2.04227 1.8866,-1.36415 -0.81017,0.11409 -1.61613,0.26363 -2.43051,0.34227 -5.95069,0.57465 -11.9943,0.60099 -17.96254,0.71636 -7.98837,0.15442 -13.41325,0.18506 -21.5371,0.26338 -17.795883,0.12201 -35.580802,-0.86015 -53.291647,-2.54978 -8.430948,-0.80432 -12.62452,-1.3651 -20.761187,-2.35918 -7.067608,-0.91372 -14.108551,-2.01861 -21.123467,-3.27113 0,0 -3.13219,2.19937 -3.13219,2.19937 v 0 c 7.220516,1.06457 14.452672,2.05126 21.704417,2.88088 7.50043,0.81757 13.407808,1.49209 21.027961,2.18078 17.688116,1.59859 35.433762,2.63924 53.199323,2.64799 7.0018,-0.0127 14.25584,-0.0157 21.27042,-0.0647 5.85277,-0.0409 11.72943,-0.0328 17.57509,-0.38889 0.79115,-0.0482 1.57936,-0.13637 2.36903,-0.20455 2.33676,-0.65313 0.87788,-0.16685 4.88035,-2.45908 0.75598,-0.43296 1.36231,-1.08848 1.77993,-1.84581 0.67184,-1.72181 0.79964,-3.56081 1.04506,-5.379 0.53707,-3.70311 1.15802,-7.40963 1.10267,-11.16609 0.12278,-3.94222 0.34664,-7.87829 0.52447,-11.81793 0.22199,-5.2393 0.47733,-10.47775 0.4868,-15.72332 0.0766,-8.79114 -0.14685,-17.58236 -0.20648,-26.37319 -0.11321,-7.69453 -0.34965,-15.39209 -0.16249,-23.086982 0,0 -3.47916,1.772724 -3.47916,1.772724 z" />
    <path
       style="fill:#000000;fill-opacity:1;fill-rule:nonzero;stroke:none;stroke-width:0.264583"
       id="path319"
       d="m 55.324501,108.87633 c -0.07384,2.09301 -0.286647,4.16226 -0.636016,6.22602 -0.395554,2.35383 -0.836583,4.72983 -0.44882,7.11819 0.119988,0.73904 0.321701,1.46247 0.482552,2.19371 0.828776,2.70388 2.185577,7.33351 5.1117,8.53387 0.497329,0.20402 1.050986,0.22643 1.576477,0.33964 1.764316,0.0156 3.298796,-0.625 4.769935,-1.54762 3.903416,-2.448 4.327718,-2.13925 6.112954,-5.26746 0.611198,-1.74826 0.940441,-3.62914 0.75778,-5.48512 -0.101087,-1.02712 -0.25537,-1.3902 -0.540017,-2.35066 -0.18261,-0.36101 -0.327462,-0.74375 -0.547833,-1.08303 -1.220036,-1.87836 -3.447352,-3.43032 -5.285814,-4.65292 -1.942777,-1.31725 -4.056388,-2.32532 -6.309717,-2.97148 -0.842621,-0.19021 -0.425696,-0.11167 -1.250199,-0.23863 0,0 -3.221672,2.27534 -3.221672,2.27534 v 0 c 0.810548,0.0935 0.398939,0.032 1.2343,0.1879 2.253207,0.56656 4.367175,1.52339 6.291775,2.83282 1.753635,1.15566 4.006911,2.70376 5.159812,4.4928 0.206864,0.321 0.339603,0.68411 0.509405,1.02617 0.274687,0.92018 0.424815,1.26302 0.511294,2.24954 0.157699,1.79895 -0.179718,3.624 -0.850966,5.28889 -0.234643,0.37907 -0.436666,0.78039 -0.703932,1.1372 -0.285996,0.38182 -1.423191,1.01178 -0.949775,1.07059 0.751173,0.0933 1.318292,-0.85211 2.071084,-0.9313 0.557496,-0.0587 -0.940811,0.61427 -1.442117,0.86514 -1.522521,0.76191 -1.528841,0.63804 -3.155772,0.89217 -0.498242,-0.0748 -1.018606,-0.0598 -1.494727,-0.22455 -2.867869,-0.99261 -4.276981,-5.66385 -5.00861,-8.23108 -0.141301,-0.72337 -0.323913,-1.43989 -0.423905,-2.17012 -0.324244,-2.36795 0.154708,-4.7266 0.535419,-7.05491 0.357854,-2.08342 0.537779,-4.17516 0.67645,-6.28347 0,0 -3.531045,1.76236 -3.531045,1.76236 z" />
    <path
       style="fill:#000000;fill-opacity:1;fill-rule:nonzero;stroke:none;stroke-width:0.264583"
       id="path321"
       d="m 123.43495,120.15845 c -2.33711,1.33847 -5.31868,2.52856 -6.46028,5.22721 -0.41816,0.9885 -0.43451,1.6425 -0.57446,2.68926 0.0138,3.32694 1.0893,4.54818 3.61178,6.50285 3.11671,2.36691 6.4499,3.19705 10.23602,3.80333 1.88326,0.12434 3.78295,-0.0199 5.47619,-0.94313 4.04519,-2.20547 4.62007,-2.21879 6.73714,-5.27056 0.20652,-0.40725 0.45944,-0.79412 0.61958,-1.22174 0.4557,-1.21689 0.67106,-2.93626 -0.0226,-4.12102 -0.12773,-0.21813 -0.32653,-0.38595 -0.4898,-0.57893 -0.437,-0.18009 -0.85745,-0.40729 -1.31102,-0.54028 -1.32155,-0.3875 -4.51278,-0.93215 -5.64672,-1.14273 -3.62281,-0.67278 -7.24081,-1.36907 -10.85966,-2.06274 -3.52982,-0.6723 -1.85989,-0.35876 -5.00929,-0.94333 0,0 -3.10526,2.17425 -3.10526,2.17425 v 0 c 3.20672,0.5373 1.50837,0.246 5.09421,0.87893 3.62117,0.66638 7.23862,1.35105 10.85044,2.06671 1.5436,0.30585 3.85625,0.74147 5.45701,1.19128 0.39568,0.11119 0.77425,0.2761 1.16137,0.41416 0.14161,0.15166 0.31662,0.27795 0.42483,0.455 0.94092,1.53945 0.0782,3.59435 -0.7071,4.96674 -0.29197,0.39375 -0.55051,0.81464 -0.8759,1.18127 -0.35627,0.40141 -1.68159,0.98079 -1.16186,1.11474 0.67032,0.17276 1.35584,-0.45537 1.85355,-0.93647 0.43289,-0.41845 -1.07466,0.55591 -1.64847,0.73823 -1.50055,0.47678 -2.15365,0.36536 -3.70926,0.38025 -3.73432,-0.56108 -7.02356,-1.32731 -10.0962,-3.66303 -2.35684,-1.82917 -3.46698,-3.01813 -3.40002,-6.15294 0.31307,-1.94918 0.62157,-3.09152 2.1276,-4.47672 0.27454,-0.25251 1.22642,-0.8346 0.88452,-0.68546 -0.88934,0.38793 -1.69754,0.94023 -2.54631,1.41035 0,0 3.09003,-2.45548 3.09003,-2.45548 z" />
    <path
       style="fill:#000000;fill-opacity:1;fill-rule:nonzero;stroke:none;stroke-width:0.264583"
       id="path327"
       d="m 79.411993,148.39517 c 0.06293,3.51839 0.0565,7.03774 0.05581,10.55659 0.0029,3.78557 -0.01434,7.57112 -0.0063,11.35669 0.005,3.45749 -0.0065,6.91496 -0.01447,10.37243 -0.0068,2.43309 -0.02111,4.86619 -0.01437,7.29928 0.0019,1.74564 -0.0096,3.49127 -0.02429,5.23684 0.0086,0.60864 0.232264,1.17718 0.420782,1.74681 0,0 3.472723,-1.91293 3.472723,-1.91293 v 0 c -0.178657,-0.52932 -0.377817,-1.05839 -0.376328,-1.62597 -0.01474,-1.73732 -0.02625,-3.47469 -0.02429,-5.21208 0.0067,-2.42821 -0.0075,-4.85643 -0.01437,-7.28463 -0.008,-3.45256 -0.01947,-6.90512 -0.01447,-10.35769 0.008,-3.78342 -0.0092,-7.56683 -0.0063,-11.35025 -7.93e-4,-3.53781 -0.0067,-7.0761 0.05581,-10.61345 0,0 -3.509875,1.78836 -3.509875,1.78836 z" />
    <path
       style="fill:#000000;fill-opacity:1;fill-rule:nonzero;stroke:none;stroke-width:0.264583"
       id="path329"
       d="m 81.094505,149.91386 c 2.299819,0.0242 4.594489,-0.075 6.890319,-0.19597 2.300716,-0.18043 4.600067,-0.15715 6.902039,-0.0364 2.478577,0.17264 4.893374,0.8631 7.329547,1.33277 3.72923,0.78094 7.47592,1.47429 11.21612,2.1996 0.5911,0.24494 1.12248,0.32384 1.44669,0.94205 0.87543,1.66929 0.32046,4.98116 0.16385,6.76065 -0.44219,4.54176 -0.87763,9.08395 -1.21023,13.63521 -0.18854,2.54955 -0.28481,5.10414 -0.31912,7.66001 -0.0173,2.32533 0.0451,4.64976 -0.0302,6.97423 -0.0831,1.81964 -0.14723,3.63936 -0.30073,5.45454 0,0 3.47595,-1.73694 3.47595,-1.73694 v 0 c 0.13171,-1.81879 0.19162,-3.64098 0.2771,-5.46247 0.0768,-2.33344 0.0485,-4.66819 0.0673,-7.00269 0.0188,-2.53343 0.082,-5.06665 0.24158,-7.59559 0.29521,-4.54829 0.73995,-9.08385 1.19532,-13.61855 0.18346,-1.96123 0.75491,-5.26659 -0.212,-7.10625 -0.38817,-0.73855 -0.9099,-0.81448 -1.61612,-1.12597 -3.76152,-0.67028 -7.52591,-1.33258 -11.25556,-2.16681 -1.55671,-0.31516 -1.84234,-0.36024 -3.30752,-0.70085 -1.00732,-0.23416 -2.01848,-0.55598 -3.050522,-0.67011 -0.31328,-0.0346 -0.629518,-0.0329 -0.944277,-0.0493 -2.31418,-0.11457 -4.62635,-0.19237 -6.939277,0.0131 -2.271612,0.12527 -4.542533,0.25289 -6.818653,0.16976 0,0 -3.201546,2.32606 -3.201546,2.32606 z" />
  </g>
</svg>
